<svg xmlns="http://www.w3.org/2000/svg" width="512" height="512" viewBox="0 0 512 512">
  <defs>
    <linearGradient id="bg" x1="0%" y1="0%" x2="100%" y2="100%">
      <stop offset="0%" stop-color="#1a1a2e"/>
      <stop offset="100%" stop-color="#16213e"/>
    </linearGradient>
  </defs>
  <rect width="512" height="512" rx="108" ry="108" fill="url(#bg)"/>
  <path d="M177.49 261.57L180.62 264.01Q166.70 286.29 166.70 309.62Q166.70 335.03 185.15 355.92Q195.25 367.76 210.74 374.37Q226.23 380.99 244.68 380.99Q263.14 380.99 277.76 374.03Q307.01 359.75 307.01 327.37Q307.01 315.19 298.82 301.61Q290.64 288.03 274.28 277.24L215.09 237.55Q180.62 215.96 180.62 181.84Q180.62 178.36 180.97 174.88Q183.06 148.07 202.38 131.18Q221.71 114.30 254.09 114.30Q273.93 114.30 302.13 117.78L323.72 117.78L319.19 168.96L316.06 168.96Q315.71 150.86 302.13 139.89Q288.55 128.92 266.27 128.92Q239.11 128.92 226.93 145.29Q221.01 153.64 221.01 163.39Q221.01 173.14 226.93 179.93Q232.85 186.72 245.73 194.72L310.84 237.20Q330.68 250.08 341.82 267.49Q355.05 288.03 355.05 309.62Q355.05 323.54 349.31 339.04Q343.56 354.53 330.51 367.76Q317.45 380.99 296.91 389.35Q276.37 397.70 251.47 397.70Q226.58 397.70 206.39 389Q169.13 373.33 159.04 334.34Q156.95 325.98 156.95 316.93Q156.95 287.68 177.49 261.57" fill="#8ab4ff"/>
</svg>