<svg xmlns="http://www.w3.org/2000/svg" width="128" height="128" viewBox="0 0 512 512">
  <defs>
    <linearGradient id="bg" x1="0%" y1="0%" x2="100%" y2="100%">
      <stop offset="0%" style="stop-color:#5b8cff"/>
      <stop offset="100%" style="stop-color:#3a6aef"/>
    </linearGradient>
  </defs>
  <rect x="0" y="0" width="512" height="512" rx="108" ry="108" fill="url(#bg)"/>
  
  <g transform="translate(256, 256) rotate(-30) translate(-200, -220)">
    <path d="M 195 60 C 260 50, 330 80, 370 140 C 390 175, 395 215, 385 250 C 365 210, 330 175, 280 150 C 240 130, 210 105, 200 82 Z" fill="white" opacity="0.85"/>
    <path d="M 200 82 C 240 130, 280 150, 330 175 C 365 210, 385 250, 385 285 C 370 260, 340 235, 300 215 C 260 195, 225 170, 208 140 Z" fill="white" opacity="0.65"/>
    <path d="M 208 140 C 235 175, 270 200, 310 220 C 345 240, 370 265, 375 295 C 355 285, 325 270, 290 255 C 255 240, 230 215, 218 195 Z" fill="white" opacity="0.45"/>
    <path d="M 195 60 C 155 65, 115 95, 95 140 C 85 165, 82 195, 90 220 C 110 185, 135 155, 170 130 C 185 118, 193 98, 195 75 Z" fill="white" opacity="0.75"/>
    <path d="M 190 100 C 150 130, 115 170, 98 215 C 92 240, 95 260, 105 278 C 118 250, 140 225, 165 200 C 182 186, 192 160, 195 140 Z" fill="white" opacity="0.55"/>
    <path d="M 193 155 C 160 185, 130 220, 115 260 C 108 280, 112 300, 120 310 C 132 290, 150 265, 170 245 C 183 232, 193 205, 198 185 Z" fill="white" opacity="0.38"/>
    <path d="M 195 58 Q 200 200, 210 360" stroke="white" stroke-width="6" fill="none" stroke-linecap="round" opacity="0.95"/>
    <path d="M 210 360 L 198 410 L 222 410 Z" fill="white" opacity="0.95"/>
    <line x1="210" y1="410" x2="208" y2="430" stroke="white" stroke-width="3" stroke-linecap="round" opacity="0.5"/>
  </g>
</svg>